<?xml version="1.0" encoding="utf-8"?>
<!-- Generator: Adobe Illustrator 18.0.0, SVG Export Plug-In . SVG Version: 6.00 Build 0)  -->
<!DOCTYPE svg PUBLIC "-//W3C//DTD SVG 1.1//EN" "http://www.w3.org/Graphics/SVG/1.1/DTD/svg11.dtd">
<svg version="1.1" id="Layer_1" xmlns="http://www.w3.org/2000/svg" xmlns:xlink="http://www.w3.org/1999/xlink" x="0px" y="0px"
	 viewBox="0 0 465 297.3" enable-background="new 0 0 465 297.3" xml:space="preserve">
<g>
	<g>
		<path fill="#F79421" d="M233.4,224.7c-0.1,0-0.2,0-0.3,0c-1-0.1-1.8-1.1-1.6-2.2c0.2-1.1,0.2-2.3,0.2-3.4l0-1l1.3-0.9
			c0.7-0.5,1.5-1.1,2.2-1.8c0.8-0.7,2-0.7,2.7,0.1c0.7,0.8,0.7,2-0.1,2.7c-0.7,0.7-1.5,1.3-2.3,1.9c0,1-0.1,2-0.2,2.9
			C235.2,224,234.3,224.7,233.4,224.7z"/>
		<path fill="#F79421" d="M240.1,214.5c-0.4,0-0.7-0.1-1.1-0.3c-0.9-0.6-1.1-1.8-0.5-2.7c1-1.5,1.8-3.1,2.4-4.7
			c0.4-1,1.4-1.5,2.4-1.2c1,0.4,1.5,1.5,1.2,2.5c-0.7,2-1.6,3.8-2.8,5.6C241.3,214.2,240.7,214.5,240.1,214.5z"/>
		<path fill="#F79421" d="M243.9,204.2c-0.1,0-0.2,0-0.2,0c-1.1-0.1-1.8-1.1-1.7-2.1c0.1-1.1,0.2-2.3,0.2-3.4l0-1.7l1.7-0.2
			c1.1-0.2,2.2-0.4,3.3-0.7c1-0.3,2.1,0.3,2.4,1.3c0.3,1-0.3,2.1-1.3,2.4c-0.7,0.2-1.5,0.4-2.2,0.6c0,0.8-0.1,1.5-0.2,2.3
			C245.7,203.5,244.9,204.2,243.9,204.2z"/>
		<path fill="#F79421" d="M253.4,197.1c-0.6,0-1.3-0.3-1.6-0.9c-0.6-0.9-0.3-2.1,0.6-2.6l0.7-0.5c1.4-1,2.7-2.1,3.8-3.4
			c0.7-0.8,1.9-0.9,2.7-0.2c0.8,0.7,0.9,1.9,0.2,2.7c-1.3,1.5-2.9,2.9-4.5,4c-0.3,0.2-0.6,0.4-0.8,0.6
			C254.1,197,253.7,197.1,253.4,197.1z M261.9,187.4c-0.3,0-0.6-0.1-0.8-0.2c-1-0.5-1.4-1.6-0.9-2.6c0.9-1.8,1.5-3.7,1.8-5.7
			c0.2-1,1.2-1.7,2.2-1.6c1,0.2,1.7,1.2,1.6,2.2c-0.4,2.3-1.1,4.6-2.1,6.7C263.3,187,262.6,187.4,261.9,187.4z"/>
		<path fill="#F79421" d="M264.2,175.7c-1,0-1.9-0.8-1.9-1.8c-0.1-1.1-0.2-2.3-0.4-3.4l-0.2-1.1l0.9-0.7c0.9-0.7,1.7-1.5,2.5-2.3
			c0.7-0.8,1.9-0.8,2.7-0.1c0.8,0.7,0.8,1.9,0.1,2.7c-0.6,0.7-1.3,1.4-2,2c0.1,0.9,0.2,1.9,0.3,2.8
			C266.2,174.7,265.4,175.6,264.2,175.7C264.3,175.7,264.2,175.7,264.2,175.7z"/>
		<path fill="#F79421" d="M270.9,162.3c-0.2,0-0.5,0-0.7-0.1c-1-0.4-1.5-1.5-1.1-2.5c1-2.5,1.5-5.2,1.6-8c0-1,0.9-1.9,1.9-1.9
			c0,0,0,0,0,0c1.1,0,1.9,0.9,1.9,2c-0.1,3.2-0.7,6.4-1.8,9.3C272.4,161.9,271.7,162.3,270.9,162.3z M271.3,145
			c-0.8,0-1.5-0.5-1.8-1.3c-0.7-2.1-1.7-4.1-3-5.9c-0.3-0.4-0.6-0.9-0.9-1.3c-0.7-0.8-0.5-2,0.3-2.7c0.8-0.7,2-0.5,2.7,0.3
			c0.4,0.5,0.7,1,1.1,1.5c1.5,2.1,2.6,4.4,3.4,6.8c0.3,1-0.2,2.1-1.2,2.4C271.7,145,271.5,145,271.3,145z"/>
		<path fill="#F79421" d="M261.7,132.1c-0.4,0-0.8-0.1-1.1-0.4c-0.9-0.7-1.9-1.2-2.9-1.8l-0.9-0.5l-0.1-1c-0.1-1.1-0.3-2.2-0.6-3.3
			c-0.3-1,0.4-2.1,1.4-2.3c1-0.3,2.1,0.4,2.3,1.4c0.2,0.9,0.4,1.9,0.6,2.9c0.9,0.5,1.7,1,2.5,1.6c0.9,0.6,1.1,1.8,0.4,2.7
			C262.9,131.9,262.3,132.1,261.7,132.1z"/>
		<path fill="#F79421" d="M255.4,120.4c-0.7,0-1.3-0.4-1.7-1c-0.4-0.7-0.8-1.3-1.2-2c-0.8-1.1-1.7-2.2-2.6-3.2c-0.7-0.8-0.7-2,0-2.7
			c0.8-0.7,2-0.7,2.7,0c1.1,1.1,2.1,2.4,3,3.7c0.5,0.7,1,1.5,1.4,2.3c0.5,0.9,0.2,2.1-0.8,2.6C256.1,120.3,255.7,120.4,255.4,120.4z
			 M245.8,110.5c-0.3,0-0.7-0.1-1-0.3c-1.9-1.1-3.9-1.9-6-2.4c-1-0.3-1.7-1.3-1.4-2.3c0.3-1,1.3-1.6,2.3-1.4c2.4,0.6,4.8,1.6,7,2.8
			c0.9,0.5,1.2,1.7,0.7,2.6C247.1,110.2,246.4,110.5,245.8,110.5z"/>
		<path fill="#F79421" d="M229,107.6l-0.7-0.8c-0.7-0.9-1.5-1.7-2.4-2.5c-0.8-0.7-0.8-1.9-0.1-2.7c0.7-0.8,1.9-0.8,2.7-0.1
			c0.7,0.6,1.4,1.3,2,2c1-0.1,1.9-0.2,2.9-0.2c1.1,0,1.9,0.9,1.9,1.9c0,1.1-0.9,1.9-1.9,1.9c-1.1,0-2.3,0.1-3.4,0.3L229,107.6z"/>
		<path fill="#F79421" d="M221.8,101c-0.3,0-0.6-0.1-0.9-0.2c-1.9-1-3.9-1.7-6-2.1c-1-0.2-1.7-1.2-1.5-2.3s1.2-1.7,2.3-1.5
			c2.4,0.5,4.8,1.3,7,2.5c0.9,0.5,1.3,1.6,0.8,2.6C223.1,100.6,222.5,101,221.8,101z"/>
		<path fill="#F79421" d="M204.6,99.1l-0.8-0.9c-0.7-0.9-1.5-1.7-2.4-2.4c-0.8-0.7-0.9-1.9-0.2-2.7c0.7-0.8,1.9-0.9,2.7-0.2
			c0.7,0.6,1.4,1.3,2,2c0.9-0.2,1.9-0.3,2.8-0.4c1-0.1,2,0.7,2,1.8c0.1,1.1-0.7,2-1.8,2c-1.1,0.1-2.3,0.3-3.3,0.5L204.6,99.1z"/>
		<path fill="#F79421" d="M175.4,92.6c-0.7,0-1.4-0.4-1.7-1c-0.5-0.9-0.1-2.1,0.8-2.6c2.4-1.3,4.9-2.1,7.6-2.6c1-0.2,2,0.5,2.2,1.6
			c0.2,1-0.5,2-1.6,2.2c-2.2,0.4-4.4,1.1-6.4,2.2C176,92.5,175.7,92.6,175.4,92.6z M196.8,92.3c-0.3,0-0.6-0.1-0.8-0.2
			c-2.1-1-4.3-1.7-6.5-2c-1-0.2-1.8-1.1-1.6-2.2c0.2-1,1.1-1.8,2.2-1.6c2.6,0.4,5.2,1.2,7.6,2.3c1,0.5,1.4,1.6,0.9,2.6
			C198.2,91.9,197.5,92.3,196.8,92.3z"/>
		<path fill="#F79421" d="M168.5,99.4l-1.4-0.5c-1-0.4-2.1-0.8-3.2-1c-1-0.2-1.7-1.3-1.4-2.3c0.2-1,1.3-1.7,2.3-1.4
			c0.8,0.2,1.6,0.4,2.5,0.7c0.6-0.7,1.1-1.3,1.8-1.9c0.8-0.7,2-0.7,2.7,0.1c0.7,0.8,0.7,2-0.1,2.7c-0.8,0.8-1.6,1.6-2.3,2.5
			L168.5,99.4z"/>
		<path fill="#F79421" d="M141.2,105.4c-0.4,0-0.9-0.1-1.2-0.4c-0.8-0.7-0.9-1.9-0.2-2.7c1.4-1.7,3.1-3.2,4.9-4.5l1.4,1.4l0.8,1.8
			c-1.5,1.1-2.9,2.3-4.1,3.8C142.3,105.2,141.7,105.4,141.2,105.4z M151.8,98.3c-0.8,0-1.6-0.5-1.8-1.3c-0.3-1,0.2-2.1,1.3-2.4
			c2.2-0.7,4.5-1.1,6.9-1.2c1.1,0,1.9,0.8,2,1.9c0,1.1-0.8,1.9-1.9,2c-2,0.1-4,0.4-5.9,1C152.2,98.3,152,98.3,151.8,98.3z"/>
		<path fill="#F79421" d="M133.1,113.5c-1,0-1.8-0.7-1.9-1.7c-0.1-1.1,0.7-2,1.7-2.1c0.8-0.1,1.7-0.1,2.5-0.1c0.3-0.8,0.6-1.6,1-2.3
			c0.5-0.9,1.6-1.3,2.6-0.9c0.9,0.5,1.3,1.6,0.9,2.6c-0.5,1-0.9,2.1-1.3,3.1l-0.4,1.4l-1.5-0.1c-1.1-0.1-2.3,0-3.4,0.1
			C133.3,113.5,133.2,113.5,133.1,113.5z"/>
		<path fill="#F79421" d="M114.3,127.5c-0.3,0-0.5,0-0.8-0.2c-1-0.4-1.4-1.5-1-2.5c0.9-2.1,2-4,3.4-5.8c0.7-0.8,1.9-1,2.7-0.3
			c0.8,0.7,1,1.9,0.3,2.7c-1.2,1.5-2.1,3.1-2.9,4.9C115.7,127,115,127.5,114.3,127.5z M121.9,117.8c-0.6,0-1.2-0.3-1.6-0.8
			c-0.6-0.9-0.4-2.1,0.4-2.7l0.5-0.4c0.5-0.3,0.9-0.6,1.4-0.9c1.3-0.8,2.6-1.4,3.9-1.9c1-0.4,2.1,0.1,2.5,1.1c0.4,1-0.1,2.1-1.1,2.5
			c-1.1,0.4-2.3,1-3.3,1.6c-0.4,0.2-0.8,0.5-1.2,0.8l-0.5,0.3C122.7,117.7,122.3,117.8,121.9,117.8z"/>
		<path fill="#F79421" d="M109.4,138.4c-0.5,0-1-0.2-1.4-0.6c-0.7-0.8-0.7-2,0.1-2.7c0.7-0.7,1.5-1.3,2.3-1.9c0.1-1,0.2-2,0.4-3
			c0.2-1,1.2-1.7,2.2-1.5c1,0.2,1.7,1.2,1.5,2.2c-0.2,1.1-0.3,2.2-0.4,3.4l0,0.9l-1.1,0.8c-0.8,0.6-1.6,1.2-2.3,1.9
			C110.4,138.3,109.9,138.4,109.4,138.4z"/>
		<path fill="#F79421" d="M105.1,146.6l-1.4-0.1c-1.1-0.1-2.3-0.1-3.4-0.1c-1.1,0-2-0.7-2-1.8c-0.1-1.1,0.7-2,1.8-2
			c0.9-0.1,1.7-0.1,2.6,0c0.4-0.8,0.8-1.6,1.3-2.3c0.6-0.9,1.7-1.2,2.6-0.6c0.9,0.6,1.2,1.7,0.6,2.6c-0.6,1-1.1,2-1.5,3L105.1,146.6
			z"/>
		<path fill="#F79421" d="M85.7,152.6c-0.5,0-1-0.2-1.4-0.6c-0.7-0.8-0.7-2,0.1-2.7c0.9-0.8,1.9-1.6,2.9-2.3
			c0.5-0.3,0.9-0.6,1.4-0.9c1-0.6,2.1-1.1,3.1-1.6c1-0.4,2.1,0,2.5,1c0.4,1,0,2.1-1,2.5c-0.9,0.4-1.8,0.8-2.6,1.3
			c-0.4,0.2-0.8,0.5-1.2,0.8c-0.9,0.6-1.7,1.3-2.4,2C86.7,152.4,86.2,152.6,85.7,152.6z"/>
		<path fill="#F79421" d="M76.1,162.7c-0.8,0-1.6-0.5-1.8-1.4c-0.3-1,0.3-2.1,1.3-2.4c0.9-0.3,1.8-0.5,2.7-0.6
			c0.4-0.9,0.7-1.7,1.2-2.6c0.5-0.9,1.7-1.3,2.6-0.8c0.9,0.5,1.3,1.7,0.8,2.6c-0.5,1-1,2-1.4,3.1l-0.4,1.1l-1.2,0.2
			c-1.1,0.1-2.2,0.4-3.3,0.7C76.4,162.7,76.2,162.7,76.1,162.7z"/>
		<path fill="#F79421" d="M60.2,179.4c-0.2,0-0.3,0-0.5-0.1c-1-0.3-1.6-1.3-1.4-2.3c0.5-2.1,1.3-4.2,2.4-6.1
			c0.5-0.9,1.7-1.3,2.6-0.8c0.9,0.5,1.3,1.7,0.8,2.6c-0.9,1.6-1.6,3.4-2,5.2C61.8,178.8,61.1,179.4,60.2,179.4z M66,168.9
			c-0.5,0-0.9-0.2-1.3-0.5c-0.8-0.7-0.8-1.9-0.1-2.7c1.1-1.2,2.4-2.3,3.8-3.2c0.5-0.3,0.9-0.6,1.3-0.9c0.9-0.6,2.1-0.3,2.6,0.6
			c0.5,0.9,0.3,2.1-0.6,2.6c-0.4,0.2-0.8,0.5-1.2,0.7c-1.1,0.8-2.2,1.7-3.2,2.7C67,168.7,66.5,168.9,66,168.9z"/>
		<path fill="#F79421" d="M56,188.9c-0.8,0-1.6-0.5-1.8-1.4c-0.3-1,0.3-2.1,1.3-2.4c0.7-0.2,1.4-0.4,2.1-0.5c0-0.7,0-1.5,0-2.2
			c0-1.1,0.9-1.9,2-1.8c1.1,0,1.9,0.9,1.8,2c0,1.1,0,2.3,0.1,3.4l0.2,1.9l-1.8,0.2c-1.1,0.1-2.2,0.4-3.3,0.7
			C56.3,188.9,56.1,188.9,56,188.9z"/>
		<path fill="#F79421" d="M39.8,206.9c-0.1,0-0.3,0-0.4,0c-1-0.2-1.7-1.2-1.5-2.3c0.5-2.3,1.2-4.5,2.2-6.5c0.5-0.9,1.6-1.3,2.6-0.9
			c0.9,0.5,1.3,1.6,0.9,2.6c-0.9,1.8-1.5,3.6-1.9,5.6C41.5,206.2,40.7,206.9,39.8,206.9z M45.5,195.5c-0.5,0-0.9-0.2-1.3-0.5
			c-0.8-0.7-0.8-1.9-0.1-2.7c1.3-1.4,2.7-2.7,4.3-3.7c0.4-0.2,0.7-0.5,1.1-0.7c0.9-0.6,2.1-0.3,2.6,0.6c0.6,0.9,0.3,2.1-0.6,2.6
			c-0.3,0.2-0.6,0.4-0.9,0.6c-1.3,0.9-2.5,2-3.6,3.2C46.5,195.3,46,195.5,45.5,195.5z"/>
		<path fill="#F79421" d="M37.4,218.8c-0.4,0-0.7-0.1-1-0.3c-0.9-0.6-1.1-1.8-0.6-2.7c0.6-0.9,1.2-1.7,1.8-2.5c-0.1-1-0.2-2-0.2-3
			c0-1.1,0.8-1.9,1.9-2c1.1,0.1,1.9,0.8,2,1.9c0,1.1,0.1,2.3,0.3,3.4l0.2,0.9l-0.6,0.7c-0.7,0.8-1.4,1.7-2,2.7
			C38.7,218.5,38.1,218.8,37.4,218.8z"/>
		<path fill="#F79421" d="M45,295.2c-1,0-1.9-0.8-1.9-1.9c0-1.1,0.8-1.9,1.9-2c2.2,0,4.4-0.4,6.5-1.2c1-0.3,2.1,0.2,2.4,1.2
			c0.3,1-0.2,2.1-1.2,2.4C50.3,294.6,47.7,295.1,45,295.2C45.1,295.2,45.1,295.2,45,295.2z M37.1,294c-0.2,0-0.4,0-0.6-0.1
			c-1.5-0.5-2.9-1.1-4.3-1.8c-0.8,0.2-1.7,0.3-2.5,0.4c-1.1,0.1-2-0.7-2.1-1.7c-0.1-1.1,0.7-2,1.7-2.1c0.9-0.1,1.9-0.3,2.8-0.5
			l0.7-0.2l0.7,0.4c1.4,0.8,2.8,1.4,4.2,1.9c1,0.3,1.6,1.4,1.2,2.4C38.6,293.5,37.9,294,37.1,294z M21.4,291.9c-0.2,0-0.3,0-0.5-0.1
			c-2.8-0.7-5.5-1.8-8-3.4c-0.9-0.6-1.2-1.8-0.6-2.6c0.6-0.9,1.8-1.2,2.6-0.6c2.1,1.3,4.4,2.3,6.8,2.9c1,0.2,1.7,1.3,1.4,2.3
			C23.1,291.3,22.3,291.9,21.4,291.9z M7.9,283.4c-0.6,0-1.1-0.2-1.5-0.7c-0.5-0.7-1.1-1.4-1.6-2.1c-1.2-1.7-2.1-3.5-2.9-5.4
			c-0.4-1,0.1-2.1,1.1-2.5c1-0.4,2.1,0.1,2.5,1.1c0.7,1.6,1.5,3.2,2.5,4.6c0.4,0.6,0.9,1.2,1.3,1.8c0.7,0.8,0.6,2-0.2,2.7
			C8.8,283.2,8.4,283.4,7.9,283.4z M2,268.6c-1,0-1.8-0.8-1.9-1.8c0-0.6-0.1-1.2-0.1-1.9c0-2.3,0.3-4.6,0.9-6.8
			c0.3-1,1.3-1.6,2.3-1.4c1,0.3,1.6,1.3,1.4,2.3C4.1,261,3.8,263,3.8,265c0,0.5,0,1.1,0.1,1.6c0.1,1.1-0.7,2-1.8,2
			C2.1,268.6,2,268.6,2,268.6z M6,253.2c-0.4,0-0.7-0.1-1.1-0.3c-0.9-0.6-1.1-1.8-0.5-2.7c1.6-2.4,3.7-4.5,6.1-6.3
			c0.9-0.6,2.1-0.4,2.7,0.4c0.6,0.9,0.4,2.1-0.4,2.7c-2,1.5-3.7,3.2-5.1,5.3C7.2,252.9,6.6,253.2,6,253.2z M19.2,243.9
			c-0.9,0-1.7-0.5-2-1.4c-0.2-0.9,0-1.7,0.7-2.1c1.2-1.8,2.7-3.5,4.4-4.9c0.3-0.9,1.2-1.5,2.2-1.3c1,0.2,1.7,1.2,1.5,2.2l-0.2,1.1
			l-0.6,0.5c-1.7,1.4-3.2,3.1-4.4,5l-0.4,0.6l-0.7,0.2C19.5,243.8,19.3,243.9,19.2,243.9z M26.9,230.3c-0.3,0-0.7-0.1-1-0.3
			c-0.9-0.5-1.2-1.7-0.7-2.6c1.5-2.6,3.3-4.8,5.6-6.7c0.8-0.7,2-0.6,2.7,0.2c0.7,0.8,0.6,2-0.2,2.7c-1.9,1.6-3.5,3.5-4.7,5.7
			C28.2,230,27.5,230.3,26.9,230.3z"/>
		<path fill="#F79421" d="M61.6,292.6c-0.4,0-0.8-0.1-1.1-0.4c-0.6-0.4-1.2-0.9-1.8-1.4c-0.4,0.3-0.8,0.5-1.3,0.8
			c-0.3,0.2-0.5,0.3-0.8,0.4c-0.9,0.5-2.1,0.2-2.6-0.8c-0.5-0.9-0.2-2.1,0.8-2.6l0.6-0.4c0.4-0.2,0.8-0.5,1.2-0.8
			c0.3-0.2,0.7-0.5,1-0.7l1.3-1l1.2,1.2c0.8,0.8,1.7,1.5,2.6,2.2c0.9,0.6,1.1,1.8,0.4,2.7C62.8,292.3,62.2,292.6,61.6,292.6z"/>
		<path fill="#F79421" d="M76,297.3c-2.8,0-5.5-0.4-8.2-1.3c-1-0.3-1.6-1.4-1.2-2.4c0.3-1,1.4-1.6,2.4-1.2c2.3,0.7,4.6,1.1,7,1.1
			c1,0,2.1,0.8,2.1,1.9c0,1-0.6,1.9-1.7,1.9C76.4,297.3,76.1,297.3,76,297.3z M84.2,295.8c-0.8,0-1.5-0.5-1.8-1.2
			c-0.4-1,0.1-2.1,1.1-2.5c1.2-0.4,2.3-1,3.4-1.6c0.4-0.2,0.8-0.5,1.2-0.8c0.6-0.4,1.2-0.9,1.7-1.3c0.8-0.7,2-0.6,2.7,0.2
			c0.7,0.8,0.6,2-0.2,2.7c-0.7,0.6-1.3,1.1-2.1,1.6c-0.5,0.3-0.9,0.6-1.4,0.9c-1.3,0.8-2.6,1.4-4,1.9
			C84.7,295.8,84.4,295.8,84.2,295.8z"/>
		<path fill="#F79421" d="M95.5,286.7c-0.4,0-0.7-0.1-1-0.3c-0.9-0.6-1.2-1.8-0.6-2.6c0.6-0.9,1.1-2,1.6-3l0.5-1.1l1.2-0.1
			c1.1-0.1,2.2-0.2,3.3-0.4c1-0.2,2.1,0.4,2.3,1.5c0.2,1-0.4,2.1-1.5,2.3c-0.9,0.2-1.8,0.3-2.8,0.4c-0.4,0.8-0.9,1.7-1.4,2.5
			C96.7,286.4,96.1,286.7,95.5,286.7z"/>
		<path fill="#F79421" d="M105.3,281.5c-0.7,0-1.5-0.4-1.8-1.2c-0.4-1,0-2.1,1-2.5c0.8-0.4,1.6-0.8,2.4-1.2c0.4-0.2,0.8-0.5,1.2-0.8
			c0.9-0.6,2.2-0.5,2.8,0.4c0.6,0.9,0.5,2-0.3,2.6c-0.8,0.5-1.2,0.8-1.7,1.1c-0.9,0.6-1.9,1-2.8,1.5
			C105.8,281.5,105.5,281.5,105.3,281.5z"/>
		<path fill="#F79421" d="M112.8,276.2c-0.5,0-0.9-0.2-1.3-0.5c-0.8-0.7-0.8-1.9-0.1-2.7c0.8-0.8,1.5-1.7,2.1-2.6l0.9-1.3l1.4,0.5
			c1.1,0.4,2.2,0.7,3.2,1c1,0.2,1.7,1.2,1.5,2.3c-0.2,1-1.3,1.7-2.3,1.5c-0.8-0.2-1.6-0.4-2.4-0.6c-0.5,0.7-1,1.3-1.6,1.9
			C113.8,276,113.3,276.2,112.8,276.2z"/>
		<path fill="#F79421" d="M127.7,274.6c-0.9,0-1.7-0.7-1.9-1.6c-0.2-1,0.5-2,1.6-2.2c2.6-0.4,5-1.4,7.3-2.7l0.7-0.5
			c0.9-0.6,2.1-0.3,2.7,0.5c0.6,0.9,0.3,2.1-0.5,2.7c-0.3,0.2-0.6,0.4-0.9,0.5c-2.7,1.6-5.6,2.7-8.6,3.2
			C127.9,274.6,127.8,274.6,127.7,274.6z"/>
		<path fill="#F79421" d="M142.7,265.1c-0.4,0-0.8-0.1-1.1-0.3c-0.9-0.6-1.1-1.8-0.5-2.7c0.6-0.9,1.2-1.9,1.7-2.9l0.5-1.1l1.2,0
			c1.1,0,2.3,0,3.4-0.2c1-0.1,2,0.6,2.2,1.6c0.1,1-0.6,2-1.6,2.2c-0.9,0.1-1.9,0.2-2.8,0.2c-0.5,0.8-0.9,1.6-1.5,2.4
			C143.9,264.8,143.3,265.1,142.7,265.1z"/>
		<path fill="#F79421" d="M154,260.1c-0.7,0-1.5-0.4-1.8-1.2c-0.4-1,0-2.1,1-2.5c0.9-0.4,1.7-0.8,2.6-1.3c0.4-0.2,0.8-0.5,1.2-0.8
			c0.4-0.3,0.8-0.6,1.2-0.9c0.8-0.7,2-0.5,2.7,0.3c0.7,0.8,0.5,2-0.3,2.7c-0.4,0.4-0.9,0.7-1.4,1c-0.5,0.3-0.9,0.6-1.4,0.9
			c-1,0.6-2,1.1-3,1.5C154.5,260.1,154.3,260.1,154,260.1z"/>
		<path fill="#F79421" d="M170.9,255.1c-0.3,0-0.6-0.1-0.9-0.2c-0.8-0.5-1.6-1-2.4-1.5c-0.9,0.4-1.8,0.7-2.7,0.9
			c-1,0.3-2.1-0.3-2.4-1.3c-0.3-1,0.3-2.1,1.3-2.4c1.1-0.3,2.1-0.7,3.2-1.2l1.1-0.5l0.9,0.7c0.9,0.7,1.9,1.3,2.9,1.9
			c0.9,0.5,1.3,1.7,0.8,2.6C172.2,254.7,171.6,255.1,170.9,255.1z"/>
		<path fill="#F79421" d="M182.6,258.1c-1.8,0-3.6-0.2-5.4-0.6c-1-0.2-1.7-1.2-1.5-2.3c0.2-1,1.2-1.7,2.3-1.5
			c2.3,0.5,4.5,0.6,6.8,0.4c1.1-0.1,2,0.7,2.1,1.7c0.1,1.1-0.7,2-1.7,2.1C184.3,258.1,183.4,258.1,182.6,258.1z M192,256.1
			c-0.7,0-1.4-0.4-1.8-1.1c-0.4-1,0-2.1,1-2.5c0.8-0.3,1.5-0.7,2.3-1.2c0.4-0.2,0.8-0.5,1.2-0.8c0.8-0.5,1.5-1.1,2.2-1.8
			c0.8-0.7,2-0.7,2.7,0.1c0.7,0.8,0.7,2-0.1,2.7c-0.8,0.7-1.7,1.4-2.6,2.1c-0.5,0.3-0.9,0.6-1.4,0.9c-0.9,0.5-1.8,1-2.7,1.4
			C192.6,256.1,192.3,256.1,192,256.1z"/>
		<path fill="#F79421" d="M202.2,247.3c-0.4,0-0.7-0.1-1-0.3c-0.9-0.6-1.2-1.8-0.6-2.6c0.6-0.9,1.1-1.9,1.6-3l0.7-1.6l1.6,0.5
			c1.1,0.3,2.2,0.5,3.3,0.7c1.1,0.1,1.8,1.1,1.7,2.1c-0.1,1.1-1.1,1.8-2.1,1.7c-0.8-0.1-1.5-0.2-2.3-0.4c-0.4,0.7-0.7,1.4-1.2,2
			C203.4,247,202.8,247.3,202.2,247.3z"/>
		<path fill="#F79421" d="M214.7,244.5c-0.9,0-1.7-0.6-1.9-1.6c-0.2-1,0.5-2,1.5-2.2c2.3-0.4,4.5-1.2,6.5-2.4
			c0.9-0.5,2.1-0.2,2.6,0.7c0.5,0.9,0.2,2.1-0.7,2.6c-2.4,1.4-5,2.3-7.7,2.8C215,244.5,214.8,244.5,214.7,244.5z M227.7,237.2
			c-0.5,0-0.9-0.2-1.3-0.5c-0.8-0.7-0.9-1.9-0.2-2.7c1.5-1.7,2.8-3.7,3.7-5.8c0.4-1,1.6-1.4,2.5-1c1,0.4,1.4,1.5,1,2.5
			c-1.1,2.5-2.5,4.8-4.4,6.9C228.7,237,228.2,237.2,227.7,237.2z"/>
	</g>
	<path fill="#F79421" d="M140.9,117.4c0.5-5.4,3.2-10.4,7.8-13.6c6.5-4.5,14.8-4.2,21.2,0.1c1.3-2.9,3.4-5.5,6.2-7.5
		c8.5-5.9,20.5-3.5,26.6,5.5c0.3,0.4,0.5,0.8,0.8,1.2c8.1-3.6,18.1-0.8,23.6,7.2c0.3,0.4,0.5,0.7,0.7,1.1c7.9-2.7,17,0.3,22.1,7.8
		c2.6,3.9,3.8,8.3,3.6,12.6c4.1,1.3,7.8,4,10.4,7.8c6.2,9,4.2,21.1-4.3,27c-0.6,0.4-1.2,0.8-1.8,1.1c3.1,8.2,0.6,17.6-6.6,22.6
		c-3.9,2.7-8.6,3.7-13,3c2.3,7.8-0.3,16.4-7.1,21.1c-0.9,0.6-1.8,1.1-2.7,1.6c1.1,7.1-1.7,14.3-7.7,18.5c-6.1,4.2-13.9,4.2-20.1,0.6
		c-0.7,5-3.4,9.6-7.7,12.6c-7.6,5.3-18,3.9-24.5-2.9c-0.1,0.1-0.1,0.1-0.2,0.2c-2.8,2-6,3-9.2,3.2c-1,1.3-2.3,2.5-3.7,3.5
		c-4.2,2.9-9.3,3.8-14,2.9c-1.1,4-3.6,7.6-7.2,10.1c-6.4,4.4-14.6,4.2-20.9,0c-0.1,0-0.2,0.1-0.2,0.1c-1.3,3.3-3.5,6.2-6.6,8.4
		c-3.8,2.6-8.3,3.6-12.7,3.1c-1,4.3-3.5,8.2-7.4,10.8c-8.5,5.9-20.5,3.5-26.6-5.5c-0.2-0.3-0.4-0.6-0.5-0.8c-1.2,1.6-2.6,3-4.3,4.2
		c-6.6,4.6-15.2,4.2-21.6-0.4c-7.9,2.8-17.2-0.1-22.4-7.7c-6.2-9-4.2-21,4.3-27c2.3-1.6,4.9-2.6,7.6-3c1.3-2.7,3.3-5.1,5.9-6.9
		c0.1-0.1,0.2-0.2,0.4-0.3c0.4-5.6,3.1-10.9,7.9-14.2c1-0.7,2.1-1.3,3.2-1.8c1.1-2.9,2.9-5.6,5.4-7.6c-2.4-7.9,0.2-16.6,7.1-21.3
		c4.1-2.9,9.1-3.8,13.7-2.9c-3.5-8.4-1.1-18.2,6.3-23.3c3.4-2.4,7.3-3.4,11.2-3.2c0.8-4.8,3.4-9.3,7.6-12.2c4.8-3.4,10.8-4,16.1-2.3
		c0.9-4.7,3.5-8.9,7.6-11.8c0.8-0.6,1.7-1,2.5-1.5c-0.7-6.7,2.1-13.4,7.8-17.4C130.1,116.7,135.7,116,140.9,117.4z"/>
	<path fill="#F16022" d="M174.4,138.9c-1.6-8,1.7-16.3,8.7-20.5c5.6-3.4,12.3-3.4,18-0.7c0.4-0.3,0.8-0.6,1.3-0.8
		c8.2-4.9,18.7-2.7,24.9,4.6c1.5-3,3.9-5.7,7-7.5c9.1-5.5,21.2-2.2,26.9,7.4c4,6.7,3.8,14.8,0.2,20.8c0.4,0.6,0.8,1.2,1.2,1.8
		c5.7,9.5,3,21.7-6.2,27.2c-3,1.8-6.3,2.6-9.6,2.6c-0.2,5.7-2.8,11.1-7.4,14.6c-0.9,5.3-4,10.1-8.8,13c-5.1,3-11,3.4-16.3,1.4
		c-1.5,2.9-3.8,5.4-6.8,7.2c-3.3,2-7,2.8-10.6,2.6c-1.3,4.5-4.1,8.5-8.4,11.1c-6.4,3.8-14.2,3.3-20.3-0.6c-1.2,1.3-2.5,2.4-4.1,3.3
		c-7.3,4.4-16.5,3.1-22.8-2.5c-1.5,3.7-4.1,7-7.7,9.2c-7,4.2-15.8,3.2-22-1.8c-0.9,0.8-1.8,1.5-2.8,2.1c-4.1,2.5-8.9,3.2-13.3,2.3
		c-1,1.4-2.3,2.6-3.8,3.5c-6.3,3.8-14.6,1.5-18.6-5.1c-4-6.6-2-15,4.3-18.8c0.5-0.3,1.1-0.6,1.7-0.8c0.3-6.3,3.5-12.3,9.1-15.6
		c4.6-2.7,9.9-3.3,14.7-1.9c-1.8-8.1,1.4-16.6,8.7-20.9c5.5-3.3,12.2-3.4,17.8-0.8c0.4-6.2,3.6-12,9.1-15.3c3-1.8,6.3-2.6,9.6-2.6
		c-0.3-6.9,3-13.6,9.1-17.3C162.5,136.7,168.9,136.6,174.4,138.9z"/>
	<path fill="#ED2224" d="M205.6,137.7c2.9-2,6.3-2.8,9.5-2.4c0.8-3.2,2.7-6.2,5.5-8.2c2.5-1.8,5.4-2.6,8.3-2.5
		c0.4-0.4,0.9-0.7,1.3-1c3.3-2.3,7.3-3,11-2.2c0,0,0,0,0,0c6.5-4.5,15.5-2.7,20.2,4.1c4.7,6.8,3.3,16-3.2,20.5
		c-0.5,0.3-1,0.6-1.5,0.9c0.7,5.2-1.4,10.5-5.8,13.6c-3.9,2.7-8.7,3.2-12.9,1.6c-0.7,0.7-1.4,1.4-2.2,1.9c-3.7,2.6-8.1,3.1-12.2,1.8
		c-0.9,1.4-2.1,2.6-3.6,3.7c-2.5,1.8-5.5,2.6-8.4,2.5c-0.9,2.8-2.7,5.3-5.2,7.1c-2.1,1.5-4.5,2.3-6.9,2.5c-0.7,1.1-1.6,2.1-2.7,2.8
		c-3.8,2.7-8.8,2.4-12.4-0.3c-1.6,0.7-3.3,1-5,0.8c-0.6,2.3-2,4.3-4,5.8c-4.8,3.4-11.5,2-15-3c-3.5-5-2.4-11.8,2.4-15.2
		c2-1.4,4.4-2,6.8-1.8c0.6-2.3,2-4.3,4-5.8c3-2.1,6.9-2.4,10.1-1c0.6-3.7,2.6-7.1,5.8-9.3c2.5-1.8,5.5-2.6,8.4-2.5
		c0.4-1.2,1-2.4,1.7-3.5C199.9,144.3,201.9,140.3,205.6,137.7z"/>
	<g>
		<path fill="#E6E6E5" d="M409,3.2c-0.9,11.4,1.7,23.3,8.1,34c6.4,10.7,15.7,18.6,26.1,23.2c-6.5,9.1-14.5,18.6-24.2,28.1
			c-18.9,18.5-40.8,33.2-75.6,47.8c-36.5,15.3-72.9,24-72.9,24s-13.8-16.2-18.5-24l0,0c-4.7-7.8-12.4-27.6-12.4-27.6
			s24.8-28,55.5-53c29.3-23.8,52.5-36.2,77.8-44.2C385.8,7.2,397.9,4.6,409,3.2z"/>
		<path fill="#676767" d="M269.7,162.2l-0.8-0.9c-0.6-0.7-14-16.4-18.7-24.3c-4.7-7.8-12.3-27.1-12.6-27.9l-0.4-1.1l0.8-0.9
			c0.2-0.3,25.3-28.4,55.8-53.2c27.8-22.6,51.3-35.9,78.4-44.5c12.6-4,24.9-6.7,36.5-8.2l2.3-0.3l-0.2,2.3
			c-0.9,11.4,1.8,22.8,7.9,32.8c6,10,14.7,17.8,25.2,22.4l2.2,0.9l-1.4,1.9c-6.8,9.6-15,19.1-24.5,28.3
			c-20.4,19.9-43.2,34.3-76.2,48.2c-36.2,15.2-72.9,24-73.2,24.1L269.7,162.2z M241.7,108.9c1.7,4.3,8,19.7,11.9,26.2
			c3.9,6.5,14.6,19.3,17.5,22.8c6.4-1.6,39.1-10,71.5-23.6c32.6-13.7,55.1-27.8,75-47.4c8.7-8.5,16.3-17.2,22.7-25.9
			c-10.3-5-18.8-12.9-24.8-23c-6-10-8.9-21.3-8.5-32.7c-10.7,1.5-22,4.1-33.6,7.8c-26.7,8.4-49.7,21.5-77.2,43.8
			C269,79.1,246.2,103.9,241.7,108.9z"/>
	</g>
	<g>
		<path fill="#A41D21" d="M409,3.2c3.9-0.5,7.6-0.8,11.2-1c18.6-1,33.5,1.8,42.9,7.5l0,0c0.6,11-4,25.4-13.6,41.4
			c-1.9,3.1-3.9,6.2-6.2,9.4c-10.4-4.6-19.7-12.5-26.1-23.2C410.7,26.4,408.1,14.5,409,3.2z"/>
		<path fill="#676767" d="M443.9,62.7l-1.4-0.6c-11.2-5-20.6-13.2-27-23.9c-6.4-10.7-9.3-22.9-8.4-35.1l0.1-1.6l1.6-0.2
			c3.9-0.5,7.7-0.8,11.3-1c18.7-1,34,1.7,44,7.7l0.9,0.5l0.1,1c0.6,11.6-4.3,26.7-13.9,42.4c-1.9,3.1-4,6.3-6.2,9.5L443.9,62.7z
			 M410.8,4.9c-0.5,10.9,2.2,21.7,8,31.3c5.7,9.6,14,17.1,23.8,21.8c1.9-2.7,3.6-5.3,5.2-7.9c8.9-14.6,13.6-28.5,13.4-39.2
			c-9.4-5.3-23.6-7.6-40.9-6.7C417.2,4.2,414,4.5,410.8,4.9z"/>
	</g>
	<g>
		<path fill="#676767" d="M422.3,52.1c0.5-0.5,0.5-1.4,0-2c-0.5-0.6-1.4-0.6-1.9-0.1c-0.5,0.5-0.5,1.4,0,2
			C420.9,52.6,421.8,52.6,422.3,52.1z"/>
	</g>
	<g>
		<path fill="#676767" d="M433.4,60.9c0.4-0.7,0.2-1.5-0.5-1.9c-0.6-0.4-1.5-0.3-1.9,0.4c-0.4,0.6-0.2,1.5,0.5,2
			C432.2,61.7,433,61.5,433.4,60.9z"/>
	</g>
	<g>
		<path fill="#676767" d="M404.1,14.3c0.7-0.1,1.3-0.7,1.2-1.5c-0.1-0.8-0.7-1.4-1.5-1.3c-0.8,0-1.3,0.7-1.2,1.5
			C402.7,13.7,403.4,14.3,404.1,14.3z"/>
	</g>
	<g>
		<path fill="#676767" d="M407.3,28.1c0.7-0.2,1.1-1,0.8-1.7c-0.2-0.7-1-1.2-1.7-1c-0.7,0.2-1.1,1-0.9,1.8
			C405.8,27.9,406.6,28.3,407.3,28.1z"/>
	</g>
	<g>
		<path fill="#676767" d="M413.5,40.9c0.6-0.4,0.8-1.3,0.4-1.9c-0.4-0.7-1.2-0.9-1.9-0.5c-0.7,0.4-0.9,1.2-0.4,1.9
			C412,41.1,412.8,41.3,413.5,40.9z"/>
	</g>
	<g>
		<path fill="#421312" d="M430.9,46.1c0.5-0.6,0.5-1.4-0.1-1.9c-0.5-0.5-1.4-0.5-1.9,0c-0.5,0.5-0.5,1.4,0.1,2
			C429.5,46.7,430.4,46.7,430.9,46.1z"/>
	</g>
	<g>
		<path fill="#421312" d="M442.1,54c0.3-0.7,0.1-1.5-0.6-1.9c-0.6-0.4-1.4-0.1-1.8,0.5c-0.4,0.7-0.1,1.5,0.6,1.9
			C440.9,54.9,441.8,54.7,442.1,54z"/>
	</g>
	<g>
		<path fill="#421312" d="M414,9.4c0.8,0,1.3-0.6,1.3-1.3c0-0.7-0.6-1.4-1.4-1.4c-0.8,0-1.4,0.5-1.4,1.3
			C412.7,8.8,413.3,9.4,414,9.4z"/>
	</g>
	<g>
		<path fill="#421312" d="M416.3,22.9c0.7-0.2,1.1-0.9,0.9-1.7c-0.2-0.7-0.9-1.2-1.7-1c-0.7,0.2-1.2,0.9-1,1.7
			C414.8,22.7,415.6,23.2,416.3,22.9z"/>
	</g>
	<g>
		<path fill="#421312" d="M422.1,35.5c0.6-0.4,0.8-1.2,0.4-1.9c-0.4-0.6-1.2-0.9-1.8-0.5c-0.7,0.4-0.9,1.2-0.5,1.9
			C420.6,35.7,421.5,35.9,422.1,35.5z"/>
	</g>
	<g>
		<path fill="#676767" d="M312,130.6c-0.5,0.5-0.5,1.4,0.1,2c0.6,0.6,1.5,0.6,2,0c0.5-0.6,0.5-1.4-0.1-2
			C313.4,130.1,312.5,130.1,312,130.6z"/>
	</g>
	<g>
		<path fill="#676767" d="M302.9,120c-0.6,0.4-0.7,1.3-0.2,2c0.5,0.7,1.4,0.8,2,0.3c0.6-0.5,0.7-1.3,0.2-2
			C304.4,119.7,303.5,119.6,302.9,120z"/>
	</g>
	<g>
		<path fill="#676767" d="M295.4,108.2c-0.7,0.4-0.9,1.2-0.5,1.9c0.4,0.7,1.3,1,1.9,0.6c0.6-0.4,0.8-1.2,0.4-1.9
			C296.9,108.1,296.1,107.8,295.4,108.2z"/>
	</g>
	<g>
		<path fill="#676767" d="M289.4,95.6c-0.7,0.3-1,1.1-0.7,1.9c0.3,0.7,1.1,1.1,1.8,0.8c0.7-0.3,1-1.1,0.7-1.8
			C290.9,95.7,290.1,95.3,289.4,95.6z"/>
	</g>
	<g>
		<path fill="#676767" d="M284.8,82.4c-0.7,0.2-1.1,1-0.9,1.8c0.2,0.8,1,1.2,1.7,1c0.7-0.2,1.1-1,0.9-1.8
			C286.3,82.7,285.5,82.2,284.8,82.4z"/>
	</g>
	<g>
		<path fill="#676767" d="M275.3,86.3c0.7-0.2,1.1-1,0.9-1.7c-0.2-0.7-1-1.1-1.7-0.9c-0.7,0.2-1.1,0.9-0.9,1.7
			C273.8,86.1,274.6,86.5,275.3,86.3z"/>
	</g>
	<g>
		<path fill="#676767" d="M279.7,98.6c0.7-0.3,1-1,0.8-1.7c-0.3-0.7-1.1-1-1.8-0.8c-0.7,0.3-1,1-0.8,1.7
			C278.2,98.5,279,98.9,279.7,98.6z"/>
	</g>
	<g>
		<path fill="#676767" d="M285.2,110.5c0.7-0.3,0.9-1.2,0.6-1.8c-0.3-0.7-1.1-0.9-1.8-0.6c-0.7,0.3-0.9,1.1-0.6,1.8
			C283.7,110.6,284.5,110.8,285.2,110.5z"/>
	</g>
	<g>
		<path fill="#E6E6E5" d="M338.5,82c11.4,19,34.1,26.4,50.6,16.5c16.5-9.9,20.7-33.4,9.3-52.4c-11.4-19-34.1-26.4-50.6-16.5
			C331.3,39.4,327.1,62.9,338.5,82z"/>
		<path fill="#CDCCCC" d="M373,104.8C373,104.8,373,104.8,373,104.8c-14.2,0-28.1-8.4-36.2-21.9c-11.9-19.9-7.5-44.6,10-55.1
			c5.1-3,11-4.7,17.1-4.7c14.2,0,28.1,8.4,36.2,21.9c11.9,19.9,7.5,44.6-10,55.1C385,103.2,379.1,104.8,373,104.8z M363.9,27.1
			c-5.5,0-10.6,1.4-15.1,4.1c-15.6,9.4-19.5,31.7-8.6,49.8c7.4,12.3,20,20,32.9,20c5.5,0,10.6-1.4,15.1-4.1
			c15.6-9.4,19.5-31.7,8.6-49.8C389.4,34.7,376.8,27.1,363.9,27.1z"/>
	</g>
	<g>
		<path fill="#676767" d="M291.8,121.7c0.6-0.4,0.8-1.3,0.4-1.9c-0.4-0.6-1.2-0.8-1.9-0.4c-0.6,0.4-0.8,1.2-0.4,1.9
			C290.4,122,291.2,122.2,291.8,121.7z"/>
	</g>
	<g>
		<path fill="#676767" d="M299.7,132.2c0.6-0.5,0.6-1.3,0.2-1.9c-0.5-0.6-1.3-0.7-1.9-0.2c-0.6,0.5-0.7,1.3-0.2,1.9
			C298.3,132.6,299.1,132.7,299.7,132.2z"/>
	</g>
	<g>
		<path fill="#676767" d="M308.7,141.6c0.5-0.6,0.5-1.4-0.1-1.9c-0.5-0.5-1.4-0.5-1.9,0.1c-0.5,0.5-0.5,1.4,0.1,1.9
			C307.4,142.2,308.2,142.2,308.7,141.6z"/>
	</g>
	<g>
		<path fill="#676767" d="M282.3,73.9c0.7-0.2,1.1-1,0.9-1.7c-0.2-0.7-1-1.1-1.7-0.9c-0.7,0.2-1.1,0.9-0.9,1.7
			C280.8,73.7,281.6,74.2,282.3,73.9z"/>
	</g>
	<g>
		<path fill="#676767" d="M321.2,141.1c0.5-0.6,0.4-1.4-0.1-1.9c-0.5-0.5-1.4-0.5-1.9,0.1c-0.5,0.5-0.5,1.4,0.1,1.9
			C319.9,141.7,320.7,141.6,321.2,141.1z"/>
	</g>
	<path fill="#676767" d="M316.4,147.2c-21.6-22.4-39-53.2-42.4-75l3.8-0.6c3.2,21.1,20.2,51,41.3,72.9L316.4,147.2z"/>
	<g>
		<g>
			<path fill="#676767" d="M350.3,91.1c0.5-0.6,0.4-1.5-0.2-2c-0.6-0.5-1.4-0.5-1.9,0.1c-0.5,0.5-0.5,1.4,0.1,2
				C348.9,91.7,349.8,91.7,350.3,91.1z"/>
		</g>
		<g>
			<path fill="#676767" d="M361.9,97.9c0.2-0.7-0.2-1.5-0.8-1.8c-0.7-0.3-1.5,0-1.7,0.7c-0.3,0.7,0.1,1.5,0.8,1.8
				C360.8,99,361.6,98.6,361.9,97.9z"/>
		</g>
		<g>
			<path fill="#676767" d="M374.9,99.8c-0.1-0.8-0.7-1.3-1.5-1.3c-0.7,0-1.3,0.6-1.3,1.4c0,0.8,0.7,1.4,1.5,1.4
				C374.4,101.2,375,100.5,374.9,99.8z"/>
		</g>
		<g>
			<path fill="#676767" d="M387.3,95.9c-0.4-0.7-1.2-0.9-1.9-0.6c-0.6,0.3-0.9,1.1-0.5,1.8c0.3,0.7,1.2,1,1.9,0.6
				C387.5,97.5,387.7,96.6,387.3,95.9z"/>
		</g>
		<g>
			<path fill="#676767" d="M396.5,86.8c-0.6-0.4-1.5-0.3-1.9,0.3c-0.4,0.6-0.3,1.4,0.3,1.9c0.6,0.5,1.5,0.4,1.9-0.3
				C397.4,88.2,397.2,87.3,396.5,86.8z"/>
		</g>
		<g>
			<path fill="#676767" d="M401,74.4c-0.7-0.1-1.4,0.3-1.6,1.1c-0.1,0.7,0.3,1.5,1.1,1.7c0.7,0.2,1.5-0.3,1.6-1
				C402.2,75.3,401.7,74.6,401,74.4z"/>
		</g>
		<g>
			<path fill="#676767" d="M400.5,61c-0.7,0.1-1.2,0.9-1.1,1.6c0.1,0.7,0.8,1.3,1.6,1.2c0.7-0.1,1.3-0.8,1.1-1.6
				C402,61.4,401.2,60.9,400.5,61z"/>
		</g>
		<g>
			<path fill="#676767" d="M395.5,48.4c-0.6,0.4-0.8,1.2-0.5,1.9c0.4,0.7,1.2,0.9,1.9,0.6c0.7-0.3,0.9-1.2,0.5-1.9
				C397,48.2,396.1,48,395.5,48.4z"/>
		</g>
		<g>
			<path fill="#676767" d="M386.7,38c-0.5,0.6-0.4,1.5,0.2,2c0.6,0.5,1.4,0.5,1.9-0.1c0.5-0.5,0.5-1.4-0.1-2
				C388.1,37.4,387.2,37.4,386.7,38z"/>
		</g>
		<g>
			<path fill="#676767" d="M375.1,31.2c-0.2,0.7,0.2,1.5,0.8,1.8c0.7,0.3,1.5,0,1.7-0.7c0.3-0.7-0.1-1.5-0.8-1.8
				C376.1,30.1,375.3,30.5,375.1,31.2z"/>
		</g>
		<g>
			<path fill="#676767" d="M362.1,29.3c0.1,0.8,0.7,1.3,1.5,1.3c0.7,0,1.3-0.6,1.3-1.4c0-0.8-0.7-1.4-1.5-1.4
				C362.6,27.9,362,28.5,362.1,29.3z"/>
		</g>
		<g>
			<path fill="#676767" d="M349.7,33.2c0.4,0.7,1.2,0.9,1.8,0.6s0.9-1.1,0.5-1.9c-0.3-0.7-1.2-1-1.9-0.6
				C349.5,31.6,349.3,32.5,349.7,33.2z"/>
		</g>
		<g>
			<path fill="#676767" d="M340.4,42.3c0.6,0.4,1.5,0.3,1.9-0.3c0.4-0.6,0.3-1.5-0.3-1.9c-0.6-0.5-1.5-0.4-1.9,0.3
				C339.6,40.9,339.8,41.8,340.4,42.3z"/>
		</g>
		<g>
			<path fill="#676767" d="M336,54.7c0.8,0.1,1.4-0.3,1.6-1.1c0.1-0.7-0.3-1.5-1.1-1.7c-0.7-0.2-1.5,0.3-1.6,1
				C334.7,53.8,335.2,54.5,336,54.7z"/>
		</g>
		<g>
			<path fill="#676767" d="M336.5,68.1c0.7-0.1,1.2-0.8,1.1-1.6s-0.8-1.3-1.6-1.2c-0.7,0.1-1.3,0.8-1.1,1.6
				C335,67.7,335.8,68.2,336.5,68.1z"/>
		</g>
		<g>
			<path fill="#676767" d="M341.5,80.7c0.6-0.4,0.8-1.2,0.5-1.9c-0.4-0.7-1.2-0.9-1.9-0.6c-0.7,0.3-0.9,1.2-0.5,1.9
				C340,80.8,340.9,81.1,341.5,80.7z"/>
		</g>
	</g>
	<path fill="#FFFFFF" d="M351.9,36.8c-12.5,7.5-15.4,25.6-6.5,40.4c8.9,14.8,26.2,20.8,38.7,13.3c12.5-7.5,15.4-25.6,6.5-40.4
		C381.7,35.2,364.3,29.3,351.9,36.8z"/>
	<path fill="#E6E6E5" d="M343.7,79.4c9.6,16,28.6,22.4,42.2,14.2c13.7-8.2,17-27.9,7.4-44c-9.6-16-28.6-22.4-42.2-14.2
		C337.4,43.6,334.1,63.4,343.7,79.4z"/>
	
		<radialGradient id="SVGID_1_" cx="149.3264" cy="-24.307" r="36.5204" gradientTransform="matrix(-0.4148 -0.6924 -0.6617 0.3965 414.3429 177.5753)" gradientUnits="userSpaceOnUse">
		<stop  offset="0.8192" style="stop-color:#2B5994"/>
		<stop  offset="0.8551" style="stop-color:#2E5B95"/>
		<stop  offset="0.8825" style="stop-color:#366099"/>
		<stop  offset="0.9073" style="stop-color:#436A9F"/>
		<stop  offset="0.9303" style="stop-color:#5477A8"/>
		<stop  offset="0.9523" style="stop-color:#698CB6"/>
		<stop  offset="0.9733" style="stop-color:#83A9C9"/>
		<stop  offset="0.9934" style="stop-color:#A6CFE2"/>
		<stop  offset="1" style="stop-color:#B5E1ED"/>
	</radialGradient>
	<path fill="url(#SVGID_1_)" d="M352.4,37.7c-12.5,7.5-15.4,25.6-6.5,40.4c8.9,14.8,26.2,20.7,38.7,13.3C397,83.9,400,65.8,391.1,51
		C382.2,36.2,364.9,30.2,352.4,37.7z"/>
	<g>
		<path fill="#A41D21" d="M299.8,55.2c0,0-19.5,15-27.8,23.4c-8.3,8.4-15.9,16.1-15.9,16.1s-13.8-10.2-26.6-5.4
			c-12.8,4.8-18.5,7-18.5,7s18-35.2,41.7-42.2C276.5,47.2,315.9,45.5,299.8,55.2z"/>
		<path fill="#676767" d="M206.9,100.1l2.3-4.6c0.7-1.5,18.6-36.1,42.9-43.2c11.7-3.4,28-5.8,39.7-5.8c11,0,13,2.1,13.5,4
			c0.8,2.7-2.3,4.9-4.6,6.3c0,0-19.3,14.9-27.4,23.1c-8.3,8.4-15.9,16.1-15.9,16.1l-1.2,1.2l-1.3-1c-0.1-0.1-8.7-6.3-18.2-6.3
			c-2.4,0-4.6,0.4-6.7,1.2c-12.7,4.7-18.4,7-18.4,7L206.9,100.1z M291.9,50.4c-11.4,0-27.3,2.3-38.7,5.6c-17.6,5.2-32.3,27-38,36.6
			c3-1.2,7.5-2.9,13.5-5.1c2.5-0.9,5.2-1.4,8-1.4c8.5,0,16,4.2,19.1,6.1c2.4-2.4,8.4-8.5,14.8-15c8.3-8.4,27.2-23,28-23.6
			c1.8-1.1,2.5-1.8,2.8-2.1C300.7,51.2,298.4,50.4,291.9,50.4z"/>
	</g>
	<g>
		<path fill="#A41D21" d="M345.9,132.1c0,0-22.4,10.1-33.8,13.5c-11.3,3.3-21.7,6.4-21.7,6.4s2.5,17-7.8,26
			c-10.3,9.1-14.9,13-14.9,13s39.5,0.8,56.9-16.9C341.9,156.4,362,122.4,345.9,132.1z"/>
		<path fill="#676767" d="M268.4,193L268.4,193l-5.9-0.1l3.9-3.3c0,0,4.8-4,14.9-12.9c9.4-8.3,7.2-24.2,7.2-24.3l-0.2-1.6l1.6-0.5
			c0,0,10.4-3.1,21.7-6.4c11.1-3.2,33.3-13.3,33.5-13.4c4.3-2.6,7.3-2.3,8.3,0.1c2.7,6.4-14.9,32.2-27.5,44.9
			C309.6,192.1,275.2,193,268.4,193z M292.5,153.4c0.4,4.7,0.5,18.1-8.6,26.1c-4.8,4.2-8.4,7.4-10.9,9.5c11-0.5,37.3-3.1,50.2-16.2
			c14.2-14.5,27.1-35.9,26.7-40.4c-0.5,0.1-1.4,0.4-3.1,1.4c-1.1,0.5-22.9,10.3-34.2,13.7C303.9,150,295.7,152.4,292.5,153.4z"/>
	</g>
	<path fill="#C62127" d="M289.5,56.1c0,0-14.5,1.6-29.1,7.3C245.8,69.1,223,85.8,223,85.8s16.3-19.6,26.6-25
		C259.8,55.5,263.5,54.7,289.5,56.1z"/>
</g>
</svg>
