<?xml version="1.0" encoding="utf-8"?>
<!-- Generator: Adobe Illustrator 18.0.0, SVG Export Plug-In . SVG Version: 6.00 Build 0)  -->
<!DOCTYPE svg PUBLIC "-//W3C//DTD SVG 1.1//EN" "http://www.w3.org/Graphics/SVG/1.1/DTD/svg11.dtd">
<svg version="1.1" xmlns="http://www.w3.org/2000/svg" xmlns:xlink="http://www.w3.org/1999/xlink" x="0px" y="0px"
	 viewBox="0 0 319 221.4" enable-background="new 0 0 319 221.4" xml:space="preserve">
<g id="background" display="none">
	<linearGradient id="SVGID_1_" gradientUnits="userSpaceOnUse" x1="159.5796" y1="0.7771" x2="159.5796" y2="226.9917">
		<stop  offset="0" style="stop-color:#000C14"/>
		<stop  offset="0.1697" style="stop-color:#000C33"/>
		<stop  offset="0.3152" style="stop-color:#00293E"/>
		<stop  offset="0.4909" style="stop-color:#003C50"/>
		<stop  offset="0.6667" style="stop-color:#005665"/>
	</linearGradient>
	<rect x="0.1" y="0.1" display="inline" fill="url(#SVGID_1_)" width="319" height="221.4"/>
</g>
<g id="stars">
	<rect x="82.1" y="72.4" fill="#FFE9AC" width="0" height="0"/>
	<path fill="#FFFFFF" d="M43.3,23.2c-1.2,0-1.2,1.8,0,1.8C44.5,25,44.5,23.2,43.3,23.2z"/>
	<path fill="#FFFFFF" d="M61.6,42.9c-0.2,0-0.4,0.1-0.6,0.1c-1,0.2-1,1.8,0,2c0.2,0,0.4,0.1,0.6,0.1c0.7,0.2,1.5-0.3,1.5-1.1
		C63.1,43.2,62.3,42.7,61.6,42.9z"/>
	<path fill="#FFFFFF" d="M22.7,31.5c-1.9,0-1.9,3,0,3C24.6,34.5,24.6,31.5,22.7,31.5z"/>
	<path fill="#FFFFFF" d="M182.9,17.8c-1,0-1,1.6,0,1.6C183.9,19.4,183.9,17.8,182.9,17.8z"/>
	<path fill="#FFFFFF" d="M174.6,70.6c-0.9,0-1.6,0.7-1.6,1.6c0,0.9,0.7,1.6,1.6,1.6c0.9,0,1.6-0.7,1.6-1.6
		C176.2,71.3,175.5,70.6,174.6,70.6z"/>
	<path fill="#FFFFFF" d="M108.6,76.2c-0.4,0-0.8,0.4-0.8,0.8c0,0.5,0.4,0.8,0.8,0.8c0.4,0,0.8-0.4,0.8-0.8
		C109.5,76.6,109.1,76.2,108.6,76.2z"/>
	<path fill="#FFFFFF" d="M111.4,92c-1.1,0-1.1,1.7,0,1.7C112.5,93.7,112.5,92,111.4,92z"/>
	<path fill="#FFFFFF" d="M203.5,39.2C203.5,39.2,203.5,39.2,203.5,39.2C203.5,39.2,203.5,39.2,203.5,39.2z"/>
	<path fill="#FFFFFF" d="M243.4,29.4c-1.9,0-1.9,3,0,3C245.3,32.4,245.3,29.4,243.4,29.4z"/>
	<path fill="#FFFFFF" d="M305.3,3c-2.3,0-2.3,3.6,0,3.6S307.6,3,305.3,3z"/>
	<path fill="#FFFFFF" d="M314.1,24.2c-0.2,0-0.4,0.1-0.6,0.1c-0.5,0.1-0.5,0.8,0,0.9c0.2,0,0.4,0.1,0.6,0.1c0.4,0.1,0.7-0.1,0.7-0.5
		S314.4,24.2,314.1,24.2z"/>
	<path fill="#FFFFFF" d="M296.3,35.1c-1.8,0-1.8,2.7,0,2.7C298.1,37.8,298.1,35.1,296.3,35.1z"/>
	<path fill="#FFFFFF" d="M279.8,55.8c-0.8,0-0.8,1.2,0,1.2C280.6,57,280.6,55.8,279.8,55.8z"/>
	<path fill="#FFFFFF" d="M152,14.8c-0.4,0-0.4,0.6,0,0.6C152.3,15.4,152.3,14.8,152,14.8z"/>
	<path fill="#FFFFFF" d="M210.1,33c0,0.2,0,0.5,0,0.7c0,0.3,0.5,0.3,0.5,0c0-0.2,0-0.5,0-0.7C210.7,32.6,210.1,32.6,210.1,33z"/>
	<path fill="#FFFFFF" d="M233.1,16.6c-0.8,0-0.8,1.2,0,1.2C233.8,17.8,233.8,16.6,233.1,16.6z"/>
	<path fill="#FFFFFF" d="M213.8,45.5c-0.3,0-0.5,0.2-0.5,0.5c0,0.2,0,0.5,0,0.7c0,0.3,0.2,0.5,0.5,0.5c0.3,0,0.5-0.2,0.5-0.5
		c0-0.2,0-0.5,0-0.7C214.4,45.8,214.1,45.5,213.8,45.5z"/>
	<path fill="#FFFFFF" d="M167.1,26.6c-0.1,0-0.2-0.1-0.3-0.1c0,0-0.1-0.1,0,0c0,0,0-0.1,0-0.1c0,0,0-0.1,0-0.1c0,0,0,0,0,0
		c0,0,0-0.1,0-0.1c0-0.4-0.7-0.4-0.7,0c0,0.5,0.5,1.1,1.1,0.9C167.4,27,167.4,26.7,167.1,26.6z"/>
	<path fill="#FFFFFF" d="M159.5,9.1c-0.6,0-0.6,1,0,1C160.1,10.1,160.1,9.1,159.5,9.1z"/>
	<path fill="#FFFFFF" d="M154,35.3c-0.6,0-0.6,0.9,0,0.9C154.6,36.2,154.6,35.3,154,35.3z"/>
	<path fill="#FFFFFF" d="M151.6,69.8c0-0.1,0-0.2,0-0.4c0-0.4-0.5-0.4-0.6,0c0,0.1,0,0.2,0,0.4c-0.1,0.1-0.1,0.2-0.1,0.3
		c0,0.2,0.2,0.5,0.5,0.5c0.2,0,0.5-0.2,0.5-0.5C151.7,70,151.7,69.9,151.6,69.8z"/>
	<path fill="#FFFFFF" d="M118.3,60.8c-0.5,0-0.5,0.8,0,0.8C118.8,61.6,118.8,60.8,118.3,60.8z"/>
	<path fill="#FFFFFF" d="M139.1,37.5c-0.2-0.1-0.5-0.2-0.7-0.3c-0.4-0.1-0.8,0.2-0.8,0.6c0,0.4,0.4,0.8,0.8,0.6
		c0.2-0.1,0.5-0.2,0.7-0.3C139.3,38,139.3,37.6,139.1,37.5z"/>
	<path fill="#FFFFFF" d="M139.6,14.8c-0.5,0-0.5,0.7,0,0.7C140,15.5,140,14.8,139.6,14.8z"/>
	<path fill="#FFFFFF" d="M91.8,6.7c-0.2-0.3-0.6-0.3-0.7,0c0,0-0.1,0.1-0.1,0.1c-0.1,0-0.2,0-0.2,0c-0.4,0-0.8,0.4-0.8,0.8
		c0,0.4,0.4,0.8,0.8,0.8c0.2,0,0.5,0,0.7-0.2c0.1-0.1,0.2-0.1,0.2-0.2l0,0c-0.1,0.1-0.1,0.1,0,0c0.1,0,0.1-0.1,0.1-0.2
		C92,7.7,92,7.5,92,7.3C92,7,91.9,6.9,91.8,6.7z"/>
	<path fill="#FFFFFF" d="M44,3.2c-0.3,0-0.3,0.4,0,0.4C44.3,3.7,44.3,3.2,44,3.2z"/>
	<path fill="#FFFFFF" d="M24.1,7c-0.7,0-0.7,1.1,0,1.1C24.8,8.1,24.8,7,24.1,7z"/>
	<path fill="#FFFFFF" d="M28.2,15.9c-0.8,0-0.8,1.3,0,1.3C29,17.1,29,15.9,28.2,15.9z"/>
	<path fill="#FFFFFF" d="M49.1,8.3c0-0.3-0.5-0.3-0.5,0c0,0.2,0,0.5,0,0.7c0.1,0.2,0.4,0.2,0.4,0C49.1,8.7,49.1,8.5,49.1,8.3z"/>
	<path fill="#FFFFFF" d="M22,49.6c-0.8,0-0.8,1.2,0,1.2C22.8,50.8,22.8,49.6,22,49.6z"/>
	<path fill="#FFFFFF" d="M6.9,63.6c-0.5,0-0.5,0.7,0,0.7C7.3,64.3,7.3,63.6,6.9,63.6z"/>
	<path fill="#FFFFFF" d="M8.3,84.8c-0.6,0-0.6,0.9,0,0.9C8.8,85.7,8.8,84.8,8.3,84.8z"/>
	<path fill="#FFFFFF" d="M50.2,66c-0.8,0-0.8,1.3,0,1.3C51,67.4,51,66,50.2,66z"/>
	<path fill="#FFFFFF" d="M81.8,104.6l-0.7,0c-0.3,0-0.6,0.3-0.6,0.6c0,0.3,0.3,0.7,0.6,0.6l0.7,0c0.3,0,0.6-0.3,0.6-0.6
		C82.4,104.9,82.2,104.6,81.8,104.6z"/>
	<path fill="#FFFFFF" d="M109.3,124.8c-0.5,0-0.5,0.8,0,0.8C109.8,125.5,109.8,124.8,109.3,124.8z"/>
	<path fill="#FFFFFF" d="M164.8,96.7C164.8,96.7,164.8,96.6,164.8,96.7c0-0.2,0-0.3,0-0.4c0-0.5-0.8-0.5-0.8,0c0,0.1,0,0.3,0,0.4
		c0,0,0,0,0,0.1c-0.1,0.2-0.1,0.5,0.1,0.6c0,0,0,0,0,0c0.2,0.2,0.5,0.2,0.7,0c0,0,0,0,0,0C164.9,97.1,164.9,96.9,164.8,96.7z"/>
	<path fill="#FFFFFF" d="M140.3,90c-0.1,0-0.1,0.2,0,0.2C140.4,90.2,140.4,90,140.3,90z"/>
	<path fill="#FFFFFF" d="M132,77.5c-0.3,0-0.3,0.4,0,0.4C132.3,77.9,132.3,77.5,132,77.5z"/>
	<path fill="#FFFFFF" d="M148.4,55c0-0.3-0.3-0.6-0.6-0.6c-0.3,0-0.6,0.3-0.6,0.6l0,0.7c0,0.4,0.3,0.6,0.6,0.6
		c0.3,0,0.7-0.3,0.6-0.6L148.4,55z"/>
	<path fill="#FFFFFF" d="M135.5,79.8c-0.9,0-0.9,1.4,0,1.4C136.4,81.1,136.4,79.8,135.5,79.8z"/>
	<path fill="#FFFFFF" d="M108,50.2c-0.9,0-0.9,1.4,0,1.4C108.9,51.6,108.9,50.2,108,50.2z"/>
	<path fill="#FFFFFF" d="M205.6,63.8c-0.2,0-0.2,0.3,0,0.3S205.8,63.8,205.6,63.8z"/>
	<path fill="#FFFFFF" d="M213.8,74.7c-0.4,0-0.4,0.6,0,0.6C214.2,75.2,214.2,74.7,213.8,74.7z"/>
	<path fill="#FFFFFF" d="M218,86.3c-0.5,0-0.5,0.7,0,0.7C218.4,87,218.4,86.3,218,86.3z"/>
	<path fill="#FFFFFF" d="M253.8,50.2c0-0.1-0.1-0.1-0.1,0c0,0.2,0,0.5,0,0.7c0,0.1,0.2,0.1,0.2,0C253.8,50.7,253.8,50.4,253.8,50.2z
		"/>
	<path fill="#FFFFFF" d="M267.5,38.4c-0.2,0-0.2,0.3,0,0.3C267.6,38.6,267.6,38.4,267.5,38.4z"/>
	<path fill="#FFFFFF" d="M276.4,45.3c-0.1,0-0.1,0.2,0,0.2C276.5,45.5,276.5,45.3,276.4,45.3z"/>
	<path fill="#FFFFFF" d="M299,52.3l0,0.7c0,0.2,0.2,0.2,0.2,0l0-0.7C299.2,52.1,299,52.1,299,52.3z"/>
	<path fill="#FFFFFF" d="M285.3,70.7c-0.2,0-0.2,0.3,0,0.3C285.5,71,285.5,70.7,285.3,70.7z"/>
	<path fill="#FFFFFF" d="M251.7,70.7c-0.2,0-0.2,0.3,0,0.3C251.9,71,251.9,70.7,251.7,70.7z"/>
	<path fill="#FFFFFF" d="M251.7,43.2c-0.1,0-0.1,0.1,0,0.1C251.7,43.4,251.7,43.2,251.7,43.2z"/>
	<path fill="#FFFFFF" d="M235.8,40.5c-0.1,0-0.1,0.1,0,0.1C235.9,40.6,235.9,40.5,235.8,40.5z"/>
	<path fill="#FFFFFF" d="M199.4,19.2C199.4,19.2,199.4,19.3,199.4,19.2C199.4,19.3,199.4,19.2,199.4,19.2z"/>
	<path fill="#FFFFFF" d="M200.8,39.8c-0.1,0-0.1,0.2,0,0.2C200.9,40,200.9,39.8,200.8,39.8z"/>
	<path fill="#FFFFFF" d="M206.3,68c-0.1,0-0.1,0.2,0,0.2C206.4,68.2,206.4,68,206.3,68z"/>
	<path fill="#FFFFFF" d="M190.5,78.3c-0.1,0-0.1,0.2,0,0.2C190.6,78.5,190.6,78.3,190.5,78.3z"/>
	<path fill="#FFFFFF" d="M187,57c-0.1,0-0.1,0.2,0,0.2S187.1,57,187,57z"/>
	<path fill="#FFFFFF" d="M171.2,54.2c-0.1,0-0.1,0.2,0,0.2C171.3,54.4,171.3,54.2,171.2,54.2z"/>
	<path fill="#FFFFFF" d="M152.6,16.4c-0.1,0-0.1,0.2,0,0.2C152.8,16.6,152.8,16.4,152.6,16.4z"/>
	<path fill="#FFFFFF" d="M138.2,10.9c-0.2,0-0.5,0-0.7,0c-0.1,0-0.1,0.2,0,0.2c0.2,0,0.5,0,0.7,0C138.3,11.1,138.3,10.9,138.2,10.9z
		"/>
	<path fill="#FFFFFF" d="M112.8,79.7c0-0.1-0.1-0.1-0.1,0c0,0.2,0,0.5-0.1,0.7c0,0.1,0.2,0.1,0.2,0C112.9,80.2,112.9,80,112.8,79.7z
		"/>
	<path fill="#FFFFFF" d="M109.3,109.2c-0.1,0-0.1,0.2,0,0.2C109.5,109.4,109.5,109.2,109.3,109.2z"/>
	<path fill="#FFFFFF" d="M93.5,96.8c-0.2,0-0.2,0.2,0,0.2C93.7,97.1,93.7,96.8,93.5,96.8z"/>
	<path fill="#FFFFFF" d="M54.3,104.4c-0.1,0-0.1,0.2,0,0.2C54.5,104.6,54.5,104.4,54.3,104.4z"/>
	<path fill="#FFFFFF" d="M5.5,49.4c-0.2,0-0.5,0-0.7,0c-0.1,0-0.1,0.2,0,0.2c0.2,0,0.5,0,0.7,0C5.6,49.6,5.6,49.4,5.5,49.4z"/>
	<path fill="#FFFFFF" d="M4.7,21.3c0,0.2,0,0.5,0,0.7c0,0.1,0.1,0.1,0.1,0c0-0.2,0-0.5,0-0.7C4.9,21.2,4.7,21.2,4.7,21.3z"/>
	<path fill="#FFFFFF" d="M85.3,13.7c-0.2-0.2-0.4-0.4-0.6-0.7c-0.1-0.2-0.1-0.4-0.1-0.7c0-0.1-0.2-0.1-0.2,0c0,0.2,0,0.5,0.1,0.7
		C84.7,13.4,85,13.6,85.3,13.7C85.3,13.9,85.4,13.8,85.3,13.7z"/>
	<path fill="#FFFFFF" d="M194.7,30.3c0-0.1-0.2-0.1-0.2,0c0,0.2,0,0.5,0,0.7c0,0.1,0.1,0.1,0.1,0C194.7,30.7,194.7,30.5,194.7,30.3z
		"/>
	<path fill="#FFFFFF" d="M228.3,83.1c-0.1,0-0.1,0.2,0,0.2C228.4,83.3,228.4,83.1,228.3,83.1z"/>
	<path fill="#FFFFFF" d="M222.8,98.9c-0.1,0-0.1,0.2,0,0.2C222.9,99.1,222.9,98.9,222.8,98.9z"/>
	<path fill="#FFFFFF" d="M130.6,121C130.6,121,130.6,121,130.6,121C130.7,121,130.7,121,130.6,121z"/>
	<path fill="#FFFFFF" d="M121.1,145.8c0-0.1-0.2-0.1-0.2,0c0,0.1,0,0.4-0.1,0.6c0,0,0,0,0,0c0,0-0.1,0-0.1,0c-0.1,0-0.3,0-0.4,0
		c0,0,0,0.1,0,0.1c0.2,0,0.5,0.1,0.6-0.1C121.1,146.3,121.1,146,121.1,145.8z"/>
	<path fill="#FFFFFF" d="M90.8,143.7C90.7,143.7,90.7,143.7,90.8,143.7C90.8,143.7,90.8,143.7,90.8,143.7z"/>
	<path fill="#FFFFFF" d="M157.5,140.2C157.4,140.2,157.4,140.3,157.5,140.2C157.5,140.3,157.5,140.2,157.5,140.2z"/>
	<path fill="#FFFFFF" d="M169.8,130.6C169.8,130.6,169.8,130.7,169.8,130.6C169.9,130.7,169.9,130.6,169.8,130.6z"/>
	<path fill="#FFFFFF" d="M182.9,115.5C182.9,115.5,182.9,115.5,182.9,115.5C182.9,115.5,182.9,115.5,182.9,115.5z"/>
	<path fill="#FFFFFF" d="M165.7,109.3c-0.2,0-0.5,0-0.7,0c0,0,0,0.1,0,0.1C165.2,109.4,165.5,109.4,165.7,109.3
		C165.8,109.4,165.8,109.3,165.7,109.3z"/>
	<path fill="#FFFFFF" d="M157.5,105.8c-0.2,0-0.4,0-0.6,0c0,0-0.1,0-0.1,0c0,0,0,0.1,0,0.1c0,0,0.1,0,0.1,0c0.2,0,0.4,0,0.6,0
		C157.5,106,157.5,105.8,157.5,105.8z"/>
	<path fill="#FFFFFF" d="M185,94.8c-0.1,0-0.1,0.2,0,0.2C185.1,95,185.1,94.8,185,94.8z"/>
	<path fill="#FFFFFF" d="M228.3,33.6c-0.2,0-0.3,0-0.5,0c-0.1,0-0.1,0-0.1,0.1c0,0,0,0.1,0.1,0.1c0.2,0,0.3,0,0.5,0
		C228.4,33.8,228.4,33.6,228.3,33.6z"/>
	<path fill="#FFFFFF" d="M244.1,17.8c-0.1,0-0.1,0.2,0,0.2C244.2,18,244.2,17.8,244.1,17.8z"/>
	<path fill="#FFFFFF" d="M225.5,7.5c-0.1,0-0.1,0.2,0,0.2C225.7,7.7,225.7,7.5,225.5,7.5z"/>
	<path fill="#FFFFFF" d="M206.3,2.7c-0.1,0-0.1,0.1,0,0.1C206.4,2.8,206.4,2.7,206.3,2.7z"/>
	<path fill="#FFFFFF" d="M191.8,1.3c-0.1,0-0.2,0-0.3,0c-0.1,0-0.3,0-0.4,0c0,0,0,0.1,0,0.1c0.1,0.1,0.2,0,0.4,0c0.1,0,0.2,0,0.3,0
		C192,1.5,192,1.3,191.8,1.3z"/>
	<path fill="#FFFFFF" d="M179.5,2.7c-0.1,0-0.1,0.1,0,0.1S179.5,2.7,179.5,2.7z"/>
	<path fill="#FFFFFF" d="M182.9,7.5c-0.2,0-0.5,0-0.7,0c-0.1,0-0.1,0.1,0,0.1C182.4,7.6,182.7,7.6,182.9,7.5
		C182.9,7.6,182.9,7.5,182.9,7.5z"/>
	<path fill="#FFFFFF" d="M195.3,8.2c-0.5,0-0.9,0-1.4,0c-0.1,0-0.1,0.2,0,0.2C194.4,8.3,194.8,8.3,195.3,8.2
		C195.3,8.3,195.3,8.2,195.3,8.2z"/>
	<path fill="#FFFFFF" d="M206.3,10.3C206.3,10.3,206.3,10.3,206.3,10.3C206.3,10.3,206.3,10.3,206.3,10.3z"/>
	<path fill="#FFFFFF" d="M211.8,16.5c-0.2,0-0.4,0-0.6-0.1c-0.1-0.1-0.1-0.4-0.1-0.6c0-0.1-0.1-0.1-0.1,0c0,0.2,0,0.5,0.1,0.6
		C211.3,16.6,211.6,16.5,211.8,16.5C211.8,16.5,211.8,16.5,211.8,16.5z"/>
	<path fill="#FFFFFF" d="M239.3,8.2c-0.1-0.1-0.2-0.1-0.3-0.1h-0.4c-0.1,0-0.1,0.2,0,0.2h0.4C239.1,8.4,239.2,8.4,239.3,8.2
		C239.3,8.3,239.3,8.2,239.3,8.2z"/>
	<path fill="#FFFFFF" d="M247.5,11.6c-0.1,0-0.1,0.2,0,0.2C247.7,11.8,247.7,11.6,247.5,11.6z"/>
	<path fill="#FFFFFF" d="M252.3,17.8c-0.1,0-0.1,0.2,0,0.2C252.4,18,252.4,17.8,252.3,17.8z"/>
	<path fill="#FFFFFF" d="M262,24c-0.1,0-0.2,0-0.3,0c0,0-0.1,0-0.1,0c0,0,0,0,0,0c0,0,0,0,0,0c-0.1-0.1-0.1-0.4-0.1-0.5
		c0-0.1-0.2-0.1-0.2,0c0,0.2,0,0.5,0.1,0.7c0.1,0.1,0.1,0.1,0.2,0.1c0.2,0,0.3,0,0.5,0C262,24.1,262,24,262,24z"/>
	<path fill="#FFFFFF" d="M277.8,18.5C277.8,18.5,277.8,18.6,277.8,18.5C277.8,18.6,277.8,18.5,277.8,18.5z"/>
	<path fill="#FFFFFF" d="M281.3,11.7C281.3,11.6,281.2,11.6,281.3,11.7c-0.1,0.2-0.1,0.5-0.1,0.7c0,0.1,0.2,0.1,0.2,0
		C281.3,12.1,281.3,11.9,281.3,11.7z"/>
	<path fill="#FFFFFF" d="M271.1,4.1c-0.3,0-0.6,0-0.9,0c0,0,0,0,0,0C270.5,4.2,270.8,4.2,271.1,4.1C271.1,4.2,271.1,4.1,271.1,4.1
		C271.1,4.1,271.1,4.1,271.1,4.1z"/>
	<path fill="#FFFFFF" d="M261.9,7.5c-0.2,0.2-0.4,0.5-0.7,0.7c-0.1,0.1,0,0.2,0.1,0.1c0.2-0.2,0.5-0.5,0.7-0.7
		C262.1,7.5,262,7.4,261.9,7.5z"/>
	<path fill="#FFFFFF" d="M259.9,13.7C259.9,13.7,259.9,13.8,259.9,13.7C260,13.8,260,13.7,259.9,13.7z"/>
	<path fill="#FFFFFF" d="M267.5,26.1c-0.2,0-0.5,0-0.7,0c0,0,0,0.1,0,0.1C267,26.2,267.2,26.2,267.5,26.1
		C267.5,26.2,267.5,26.1,267.5,26.1z"/>
	<path fill="#FFFFFF" d="M281.2,26.1C281.2,26.1,281.2,26.1,281.2,26.1C281.2,26.1,281.2,26.1,281.2,26.1z"/>
	<path fill="#FFFFFF" d="M310.1,25.3c-0.2,0-0.2,0.3,0,0.3C310.3,25.6,310.3,25.3,310.1,25.3z"/>
	<path fill="#FFFFFF" d="M313.5,43.9c-0.1,0-0.1,0.2,0,0.2S313.7,43.9,313.5,43.9z"/>
	<path fill="#FFFFFF" d="M156.9,19.9c0,0,0-0.1,0-0.1c0-0.1,0-0.1-0.1-0.1c0,0-0.1,0-0.1,0.1c0,0,0,0.1,0,0.1c0,0,0,0,0,0
		c0,0.3,0,0.6,0,0.8c0,0.1,0,0.1,0.1,0.1c0,0,0.1,0,0.1-0.1C156.9,20.5,156.9,20.2,156.9,19.9C156.9,19.9,156.9,19.9,156.9,19.9z"/>
	<path fill="#FFFFFF" d="M150.8,32.1c0,0-0.1-0.1-0.2,0c0,0-0.1,0.1-0.1,0.1c0,0,0,0,0,0c-0.3,0.3-0.5,0.5-0.8,0.8c0,0,0,0-0.1,0.1
		c-0.1,0.1,0,0.1,0,0.2c0,0,0.1,0.1,0.2,0c0,0,0,0,0.1-0.1c0.3-0.3,0.5-0.5,0.8-0.8c0,0,0,0,0,0c0,0,0.1-0.1,0.1-0.1
		C150.9,32.2,150.8,32.1,150.8,32.1z"/>
	<path fill="#FFFFFF" d="M138.2,19.2c-0.1,0-0.1,0.2,0,0.2C138.3,19.3,138.3,19.2,138.2,19.2z"/>
</g>
<g id="lighting" display="none">
	<radialGradient id="SVGID_2_" cx="8.1413" cy="186.8043" r="165.2807" gradientUnits="userSpaceOnUse">
		<stop  offset="0" style="stop-color:#717375"/>
		<stop  offset="0.4305" style="stop-color:#6F7173"/>
		<stop  offset="0.5856" style="stop-color:#696A6C"/>
		<stop  offset="0.6961" style="stop-color:#5D5F61"/>
		<stop  offset="0.7855" style="stop-color:#4D4E50"/>
		<stop  offset="0.862" style="stop-color:#38393A"/>
		<stop  offset="0.9286" style="stop-color:#1E1E1F"/>
		<stop  offset="0.9879" style="stop-color:#000000"/>
	</radialGradient>
	<path display="inline" fill="url(#SVGID_2_)" d="M138.6,221.3c28.1-21.3,46.3-55.1,46.3-93.2c0-64.5-52.3-116.8-116.8-116.8
		c-25.1,0-48.4,7.9-67.4,21.4v188.6H138.6z"/>
</g>
<g id="overlay" display="none">
	<radialGradient id="SVGID_3_" cx="158.144" cy="188.3975" r="198.0424" gradientUnits="userSpaceOnUse">
		<stop  offset="0" style="stop-color:#E2AB3C"/>
		<stop  offset="1" style="stop-color:#000000"/>
	</radialGradient>
	<rect x="0" y="0" display="inline" opacity="0.38" fill="url(#SVGID_3_)" width="319" height="221.4"/>
</g>
</svg>
